<svg xmlns="http://www.w3.org/2000/svg" width="1080" height="620" viewBox="0 0 1080 620" role="img" aria-labelledby="title desc">
  <title id="title">Resource resolution and fallback</title>
  <desc id="desc">Flow chart for resolving localized text by current culture, default culture, and key fallback.</desc>
  <defs>
    <marker id="arrow" viewBox="0 0 10 10" refX="9" refY="5" markerWidth="8" markerHeight="8" orient="auto">
      <path d="M0 0 L10 5 L0 10 z" fill="#334155"/>
    </marker>
    <style>
      .title{font:700 26px "Segoe UI",Arial,sans-serif;fill:#0f172a}
      .label{font:700 17px "Segoe UI",Arial,sans-serif;fill:#0f172a}
      .text{font:14px "Segoe UI",Arial,sans-serif;fill:#334155}
      .node{fill:#ffffff;stroke:#94a3b8;stroke-width:2;rx:10}
      .decision{fill:#fef9c3;stroke:#ca8a04;stroke-width:2}
      .ok{fill:#dcfce7;stroke:#16a34a;stroke-width:2;rx:10}
      .fallback{fill:#fee2e2;stroke:#dc2626;stroke-width:2;rx:10}
      .line{stroke:#334155;stroke-width:2.2;fill:none;marker-end:url(#arrow)}
      .caption{font:13px "Segoe UI",Arial,sans-serif;fill:#475569}
    </style>
  </defs>
  <rect width="1080" height="620" fill="#f8fafc"/>
  <text x="48" y="58" class="title">Resource Resolution And Fallback</text>
  <text x="48" y="86" class="text">Plugins expose the same order: explicit or current culture, default culture, then original key.</text>

  <rect x="410" y="122" width="260" height="70" class="node"/>
  <text x="446" y="164" class="label">Input key + CultureName?</text>
  <path d="M540 192 V238" class="line"/>

  <polygon points="540,238 672,314 540,390 408,314" class="decision"/>
  <text x="482" y="304" class="label">Selected culture</text>
  <text x="488" y="328" class="text">explicit or current</text>
  <text x="500" y="350" class="text">Resource found?</text>

  <path d="M672 314 H824" class="line"/>
  <text x="708" y="300" class="caption">found</text>
  <rect x="824" y="278" width="190" height="72" class="ok"/>
  <text x="866" y="322" class="label">Return translation</text>

  <path d="M540 390 V438" class="line"/>
  <text x="558" y="420" class="caption">missing</text>

  <polygon points="540,438 672,514 540,590 408,514" class="decision"/>
  <text x="486" y="510" class="label">Default culture</text>
  <text x="500" y="534" class="text">Resource found?</text>

  <path d="M672 514 H824" class="line"/>
  <text x="710" y="500" class="caption">found</text>
  <rect x="824" y="478" width="190" height="72" class="ok"/>
  <text x="842" y="522" class="label">Return default text</text>

  <path d="M408 514 H222" class="line"/>
  <text x="304" y="500" class="caption">missing</text>
  <rect x="66" y="478" width="156" height="72" class="fallback"/>
  <text x="108" y="522" class="label">Return key</text>

  <rect x="74" y="196" width="250" height="110" class="node"/>
  <text x="98" y="234" class="label">Format arguments</text>
  <text x="98" y="264" class="text">After resource hit, Args</text>
  <text x="98" y="288" class="text">use string.Format</text>
  <path d="M324 252 C362 252 374 314 408 314" class="line"/>
</svg>
